<?xml version="1.0" encoding="UTF-8"?>
<svg xmlns="http://www.w3.org/2000/svg" width="240" height="240" viewBox="0 0 240 240">
  <rect width="100%" height="100%" rx="20" fill="#ffffff" />
  <!-- Leaf -->
  <g transform="translate(40,18)">
    <path d="M30 6 C26 2, 18 0, 12 6 C6 12, 8 22, 12 30 C16 38, 26 48, 32 52 C38 56, 46 56, 50 50 C54 44, 52 34, 48 26 C44 18, 34 10, 30 6 Z" fill="#6bbf59" />
    <path d="M40 4 C36 0, 28 -2, 22 4 C16 10, 18 20, 22 28 C26 36, 36 46, 42 50 C48 54, 56 54, 60 48 C64 42, 62 32, 58 24 C54 16, 44 8, 40 4 Z" fill="#2f8a2f" opacity="0.9" />
  </g>

  <text x="120" y="88" font-family="Georgia, serif" font-size="28" text-anchor="middle" fill="#0b6623" font-weight="700">UNITED</text>
  <text x="120" y="118" font-family="Arial, Helvetica, sans-serif" font-size="20" text-anchor="middle" fill="#111111" font-weight="700">TEA TRADERS</text>
  <text x="120" y="150" font-family="Arial, Helvetica, sans-serif" font-size="16" text-anchor="middle" fill="#e53935" font-weight="700">Wholesale & Retail</text>
  <text x="120" y="176" font-family="Arial, Helvetica, sans-serif" font-size="10" text-anchor="middle" fill="#111111">Old Eidgah Road, Madannapet, Hyderabad</text>
</svg>

